<?xml version="1.0" encoding="UTF-8" standalone="no"?>
<!DOCTYPE svg PUBLIC "-//W3C//DTD SVG 1.1//EN" "http://www.w3.org/Graphics/SVG/1.1/DTD/svg11.dtd">
<svg width="100%" height="100%" viewBox="0 0 500 500" version="1.1" xmlns="http://www.w3.org/2000/svg" xmlns:xlink="http://www.w3.org/1999/xlink" xml:space="preserve" xmlns:serif="http://www.serif.com/" style="fill-rule:evenodd;clip-rule:evenodd;stroke-linecap:round;stroke-linejoin:round;stroke-miterlimit:1.5;">
    <g transform="matrix(1,0,0,1,-1.92921,4.49388)">
        <rect x="125.352" y="112.256" width="253.155" height="218.702" style="fill:white;stroke:white;stroke-width:10px;"/>
    </g>
    <g transform="matrix(1.43131,0,0,1.43131,-79.2717,-78.4036)">
        <rect x="158.533" y="178.81" width="17.444" height="17.444"/>
    </g>
    <g transform="matrix(1.43131,0,0,1.43131,-79.2717,-38.4028)">
        <rect x="158.533" y="178.81" width="17.444" height="17.444"/>
    </g>
    <g transform="matrix(1.43131,0,0,1.43131,-79.2717,1.57852)">
        <rect x="158.533" y="178.81" width="17.444" height="17.444"/>
    </g>
    <g transform="matrix(1.43131,0,0,1.43131,-79.2717,41.5711)">
        <rect x="158.533" y="178.81" width="17.444" height="17.444"/>
    </g>
    <g transform="matrix(1.43131,0,0,1.43131,-34.3329,-78.4036)">
        <rect x="158.533" y="178.81" width="17.444" height="17.444"/>
    </g>
    <g transform="matrix(1.43131,0,0,1.43131,-34.3329,-38.4028)">
        <rect x="158.533" y="178.81" width="17.444" height="17.444"/>
    </g>
    <g transform="matrix(1.43131,0,0,1.43131,-34.3329,1.57852)">
        <rect x="158.533" y="178.81" width="17.444" height="17.444"/>
    </g>
    <g transform="matrix(1.43131,0,0,1.43131,-34.3329,41.5711)">
        <rect x="158.533" y="178.81" width="17.444" height="17.444"/>
    </g>
    <g transform="matrix(1.43131,0,0,1.43131,10.6058,-78.4036)">
        <rect x="158.533" y="178.81" width="17.444" height="17.444"/>
    </g>
    <g transform="matrix(1.43131,0,0,1.43131,10.6058,-38.4028)">
        <rect x="158.533" y="178.81" width="17.444" height="17.444"/>
    </g>
    <g transform="matrix(1.43131,0,0,1.43131,10.6058,1.57852)">
        <rect x="158.533" y="178.81" width="17.444" height="17.444"/>
    </g>
    <g transform="matrix(1.43131,0,0,1.43131,10.6058,41.5711)">
        <rect x="158.533" y="178.81" width="17.444" height="17.444"/>
    </g>
    <g transform="matrix(1.43131,0,0,1.43131,55.5446,-78.4036)">
        <rect x="158.533" y="178.81" width="17.444" height="17.444"/>
    </g>
    <g transform="matrix(1.43131,0,0,1.43131,55.5446,-38.4028)">
        <rect x="158.533" y="178.81" width="17.444" height="17.444"/>
    </g>
    <g transform="matrix(1.43131,0,0,1.43131,55.5446,1.57852)">
        <rect x="158.533" y="178.81" width="17.444" height="17.444"/>
    </g>
    <g transform="matrix(1.43131,0,0,1.43131,55.5446,41.5711)">
        <rect x="158.533" y="178.81" width="17.444" height="17.444"/>
    </g>
    <g transform="matrix(1.43131,0,0,1.43131,100.483,-78.4036)">
        <rect x="158.533" y="178.81" width="17.444" height="17.444"/>
    </g>
    <g transform="matrix(1.43131,0,0,1.43131,100.483,-38.4028)">
        <rect x="158.533" y="178.81" width="17.444" height="17.444"/>
    </g>
    <g transform="matrix(1.43131,0,0,1.43131,100.483,1.57852)">
        <rect x="158.533" y="178.81" width="17.444" height="17.444"/>
    </g>
    <g transform="matrix(1.43131,0,0,1.43131,100.483,41.5711)">
        <rect x="158.533" y="178.81" width="17.444" height="17.444"/>
    </g>
    <rect x="123.422" y="116.75" width="253.155" height="44.977" style="fill:none;stroke:black;stroke-width:12.95px;"/>
    <g transform="matrix(1,0,0,1,-0.599183,5.65985)">
        <path d="M189.708,86.897C189.708,84.714 187.936,82.942 185.753,82.942L177.844,82.942C175.662,82.942 173.89,84.714 173.89,86.897L173.89,135.284C173.89,137.467 175.662,139.239 177.844,139.239L185.753,139.239C187.936,139.239 189.708,137.467 189.708,135.284L189.708,86.897Z" style="stroke:white;stroke-width:3px;"/>
    </g>
    <g transform="matrix(1,0,0,1,137.686,0)">
        <path d="M189.708,86.897C189.708,84.714 187.936,82.942 185.753,82.942L177.844,82.942C175.662,82.942 173.89,84.714 173.89,86.897L173.89,135.284C173.89,137.467 175.662,139.239 177.844,139.239L185.753,139.239C187.936,139.239 189.708,137.467 189.708,135.284L189.708,86.897Z" style="stroke:white;stroke-width:3px;"/>
    </g>
    <g transform="matrix(1,0,0,1,-84.3314,-10.3186)">
        <text x="142.331px" y="438.087px" style="font-family:'HGSGothicE', sans-serif;font-size:96px;fill:white;">お問合せ</text>
    </g>
</svg>
