<?xml version="1.0" encoding="UTF-8" standalone="no"?>
<!DOCTYPE svg PUBLIC "-//W3C//DTD SVG 1.1//EN" "http://www.w3.org/Graphics/SVG/1.1/DTD/svg11.dtd">
<svg width="100%" height="100%" viewBox="0 0 500 500" version="1.1" xmlns="http://www.w3.org/2000/svg" xmlns:xlink="http://www.w3.org/1999/xlink" xml:space="preserve" xmlns:serif="http://www.serif.com/" style="fill-rule:evenodd;clip-rule:evenodd;stroke-linecap:round;stroke-linejoin:round;stroke-miterlimit:1.5;">
    <g transform="matrix(1,0,0,1.09524,6.14051,-33.0855)">
        <rect x="144.151" y="91.808" width="199.416" height="235.929" style="fill:white;stroke:white;stroke-width:12.35px;"/>
    </g>
    <g transform="matrix(0.719697,0,0,1.31818,37.6099,-47.9788)">
        <rect x="189.09" y="130.194" width="123.582" height="41.194"/>
    </g>
    <g transform="matrix(0.433549,0,0,1.55091,193.654,-7.59328)">
        <rect x="189.09" y="130.194" width="123.582" height="41.194"/>
    </g>
    <g transform="matrix(0.433549,0,0,0.449013,193.654,203.518)">
        <rect x="189.09" y="130.194" width="123.582" height="41.194"/>
    </g>
    <g transform="matrix(0.36806,0,0,0.964016,104.101,140.035)">
        <rect x="189.09" y="130.194" width="123.582" height="41.194"/>
    </g>
    <g transform="matrix(0.901484,0,0,1,17.112,13.5753)">
        <rect x="173.698" y="180.75" width="107.143" height="4.681"/>
    </g>
    <g transform="matrix(0.901484,0,0,1,17.112,28.3008)">
        <rect x="173.698" y="180.75" width="107.143" height="4.681"/>
    </g>
    <g transform="matrix(0.901484,0,0,1,17.112,43.0117)">
        <rect x="173.698" y="180.75" width="107.143" height="4.681"/>
    </g>
    <g transform="matrix(0.901484,0,0,1,17.112,57.7372)">
        <rect x="173.698" y="180.75" width="107.143" height="4.681"/>
    </g>
    <g transform="matrix(0.901484,0,0,1,17.112,72.4481)">
        <rect x="173.698" y="180.75" width="107.143" height="4.681"/>
    </g>
    <g transform="matrix(0.425031,0,0,1,150.659,87.7846)">
        <rect x="173.698" y="180.75" width="107.143" height="4.681"/>
    </g>
    <g transform="matrix(0.500069,0,0,1,188.773,102.421)">
        <rect x="173.698" y="180.75" width="107.143" height="4.681"/>
    </g>
    <g transform="matrix(0.500069,0,0,1,188.773,117.11)">
        <rect x="173.698" y="180.75" width="107.143" height="4.681"/>
    </g>
    <g transform="matrix(0.425031,0,0,1,150.659,102.421)">
        <rect x="173.698" y="180.75" width="107.143" height="4.681"/>
    </g>
    <g transform="matrix(0.425031,0,0,1,150.659,117.098)">
        <rect x="173.698" y="180.75" width="107.143" height="4.681"/>
    </g>
    <g transform="matrix(0.500069,0,0,1,188.773,-54.3564)">
        <rect x="173.698" y="180.75" width="107.143" height="4.681"/>
    </g>
    <g transform="matrix(0.500069,0,0,1,188.773,-39.6309)">
        <rect x="173.698" y="180.75" width="107.143" height="4.681"/>
    </g>
    <g transform="matrix(0.500069,0,0,1,188.773,-24.9006)">
        <rect x="173.698" y="180.75" width="107.143" height="4.681"/>
    </g>
    <g transform="matrix(0.500069,0,0,1,188.773,-10.1751)">
        <rect x="173.698" y="180.75" width="107.143" height="4.681"/>
    </g>
    <g transform="matrix(0.261414,0,0,1,128.291,-80.282)">
        <rect x="173.698" y="180.75" width="107.143" height="4.681"/>
    </g>
    <g transform="matrix(0.261414,0,0,1,255.797,-82.6225)">
        <rect x="173.698" y="180.75" width="107.143" height="4.681"/>
    </g>
    <g transform="matrix(0.901484,0,0,1,45.1206,-69.6325)">
        <rect x="173.698" y="180.75" width="107.143" height="4.681"/>
    </g>
    <g transform="matrix(1,0,0,1,32.8059,-3.28803)">
        <text x="173.698px" y="114.04px" style="font-family:'Arial-BoldMT', 'Arial', sans-serif;font-weight:700;font-size:28.754px;">NEWS</text>
    </g>
    <g transform="matrix(1,0,0,1,-84.3314,-10.3186)">
        <text x="142.331px" y="438.087px" style="font-family:'HGSGothicE', sans-serif;font-size:96px;fill:white;">お知らせ</text>
    </g>
</svg>
